<svg data-name="Layer 1" xmlns="http://www.w3.org/2000/svg" viewBox="0 0 128 128"><path style="fill:#2ec3fc" d="M64 118.5 41 58.333h46L64 118.5z"/><path style="fill:#1ba4fc" d="M73.469 64.924 64 118.5l23-60.167-13.531 6.591z"/><ellipse cx="64" cy="58.333" rx="23" ry="7.232" style="fill:#f8b62b"/><circle cx="69.664" cy="92.417" r="4" style="fill:#f9d12f"/><path d="M51.667 72.417a7.954 7.954 0 0 0-4.7 1.534l5.514 14.425a8 8 0 0 0-.817-15.959z" style="fill:#f9d12f"/><path style="fill:#ec4d85" d="m64 9.5 2.518 5.101 5.629.818-4.073 3.971.961 5.607L64 22.35l-5.035 2.647.961-5.607-4.073-3.971 5.629-.818L64 9.5z"/><path d="M64 60.083a1.75 1.75 0 0 1-1.75-1.75V30.484a1.75 1.75 0 1 1 3.5 0v27.849a1.75 1.75 0 0 1-1.75 1.75z" style="fill:#fd852b"/><path style="fill:#1ba4fc" d="m14.35 13.08 5.387 1.827 4.56-3.402-.073 5.688 4.645 3.285-5.433 1.688-1.689 5.433-3.284-4.645-5.689.073 3.403-4.559-1.827-5.388z"/><path d="M53.331 60.082A1.751 1.751 0 0 1 51.612 58c.017-.086 1.636-8.608-1.759-13.238l-.06-.081a7.557 7.557 0 0 1-2.752 4.2c-2.8 2.187-5.9 2.421-8.292.631a6.513 6.513 0 0 1-2.216-7.362c.534-1.346 2.433-4.406 8.492-3.721.167.019.332.041.495.064-2.613-5.679-9.527-11.361-15.557-10.914a1.75 1.75 0 0 1-.268-3.49c8.04-.611 16.686 6.859 19.432 13.952a14.558 14.558 0 0 1 .6 1.924 10.2 10.2 0 0 1 2.956 2.735c4.3 5.878 2.444 15.567 2.363 15.977a1.749 1.749 0 0 1-1.715 1.405zm-9.965-18.251c-1.887 0-3.165.563-3.58 1.608a3 3 0 0 0 1.061 3.27c1.08.808 2.515.6 4.041-.59a4.361 4.361 0 0 0 1.658-3.8 8.948 8.948 0 0 0-1.914-.417 11.27 11.27 0 0 0-1.266-.071z" style="fill:#fd852b"/><path style="fill:#2ec3fc" d="m113.65 13.08-5.387 1.827-4.56-3.402.073 5.688-4.645 3.285 5.433 1.688 1.688 5.433 3.285-4.645 5.689.073-3.403-4.559 1.827-5.388z"/><path d="M74.668 60.082a1.749 1.749 0 0 1-1.714-1.409c-.081-.409-1.936-10.1 2.363-15.977a10.2 10.2 0 0 1 2.955-2.732 14.556 14.556 0 0 1 .6-1.924c2.746-7.093 11.4-14.54 19.428-13.952a1.751 1.751 0 0 1 1.611 1.879 1.769 1.769 0 0 1-1.879 1.611c-6.021-.45-12.943 5.235-15.557 10.914.163-.023.328-.046.495-.064 6.062-.686 7.957 2.375 8.492 3.721a6.514 6.514 0 0 1-2.216 7.362c-2.389 1.792-5.489 1.555-8.292-.631a7.559 7.559 0 0 1-2.752-4.2l-.06.081c-3.39 4.626-1.771 13.148-1.754 13.239a1.751 1.751 0 0 1-1.719 2.087zm6.784-17.759a4.361 4.361 0 0 0 1.658 3.8c1.527 1.19 2.963 1.4 4.041.59a3 3 0 0 0 1.062-3.272c-.5-1.265-2.269-1.825-4.847-1.532a8.961 8.961 0 0 0-1.913.414z" style="fill:#fd852b"/><path d="M69.664 96.417a4 4 0 0 0 0-8c-.121 0-.235.025-.354.036l-1.339 7.576a3.964 3.964 0 0 0 1.693.388z" style="fill:#f8b62b"/><path style="fill:#fd748c" d="m65.49 19.057 4.074-3.971-5.63-.818-1.143-2.318-1.309 2.651-5.629.818 4.073 3.971-.643 3.748-.318 1.859 4.06-2.135.975-.512 2.259 1.188-.769-4.481z"/><path style="fill:#2ec3fc" d="m22.141 15.735.033-2.647-2.437 1.819-5.387-1.827 1.827 5.388-2.284 3.06-1.119 1.499 4.646-.059 1.043-.014 1.522 2.153 1.368-4.399 5.432-1.688-4.644-3.285z"/><path style="fill:#1ba4fc" d="m105.859 15.735-.033-2.647 2.437 1.819 5.387-1.827-1.827 5.388 2.284 3.06 1.119 1.499-4.646-.059-1.043-.014-1.522 2.153-1.368-4.399-5.432-1.688 4.644-3.285z"/></svg>
